<?xml version="1.0" encoding="UTF-8" standalone="no"?>
<!--Generator: Apple Native CoreSVG 123-->

<svg
   xmlns:dc="http://purl.org/dc/elements/1.1/"
   xmlns:cc="http://creativecommons.org/ns#"
   xmlns:rdf="http://www.w3.org/1999/02/22-rdf-syntax-ns#"
   xmlns:svg="http://www.w3.org/2000/svg"
   xmlns="http://www.w3.org/2000/svg"
   xmlns:sodipodi="http://sodipodi.sourceforge.net/DTD/sodipodi-0.dtd"
   xmlns:inkscape="http://www.inkscape.org/namespaces/inkscape"
   version="1.1"
   width="3300"
   height="2200"
   id="svg188"
   sodipodi:docname="arrow.clockwise.svg"
   inkscape:version="0.92.2 5c3e80d, 2017-08-06">
  <metadata
     id="metadata194">
    <rdf:RDF>
      <cc:Work
         rdf:about="">
        <dc:format>image/svg+xml</dc:format>
        <dc:type
           rdf:resource="http://purl.org/dc/dcmitype/StillImage" />
      </cc:Work>
    </rdf:RDF>
  </metadata>
  <defs
     id="defs192" />
  <sodipodi:namedview
     pagecolor="#ffffff"
     bordercolor="#666666"
     borderopacity="1"
     objecttolerance="10"
     gridtolerance="10"
     guidetolerance="10"
     inkscape:pageopacity="0"
     inkscape:pageshadow="2"
     inkscape:window-width="1258"
     inkscape:window-height="803"
     id="namedview190"
     showgrid="false"
     inkscape:zoom="0.85818182"
     inkscape:cx="42.26863"
     inkscape:cy="2131.0351"
     inkscape:window-x="0"
     inkscape:window-y="0"
     inkscape:window-maximized="0"
     inkscape:current-layer="svg188" />
  <!--glyph: "uni100148.medium", point size: 100.000000, font version: "Version 15.0d4e20", template writer version: "2"-->
  <g
     transform="translate(1412.5994,-872.6941)"
     id="Regular-M"
     inkscape:export-xdpi="27.816668"
     inkscape:export-ydpi="27.816668">
    <path
       inkscape:connector-curvature="0"
       id="path142"
       d="m -1338.8854,952.58463 c 1.1718,0 2.0996,-0.3907 2.832,-1.1231 l 20.1172,-20.2148 c 0.8301,-0.8301 1.2207,-1.8067 1.2207,-2.9297 0,-1.0742 -0.4395,-2.1485 -1.2207,-2.9297 l -20.1172,-20.4102 c -0.6836,-0.7812 -1.6602,-1.1718 -2.8809,-1.1718 -2.1484,0 -3.8086,1.7578 -3.8086,4.0039 0,1.0254 0.3418,2.0019 1.0743,2.7832 l 13.0371,12.7929 c -2.7832,-0.4882 -5.6641,-0.7812 -8.4961,-0.7812 -23.9258,0 -43.1152,19.1894 -43.1152,43.1152 0,23.97463 19.1894,43.21287 43.1152,43.21287 23.9257,0 43.164,-19.23824 43.164,-43.21287 0,-2.3437 -1.6601,-4.0527 -4.1015,-4.0527 -2.295,0 -3.7598,1.709 -3.7598,4.0527 0,19.6289 -15.7227,35.35157 -35.3027,35.35157 -19.5801,0 -35.2539,-15.72267 -35.2539,-35.35157 0,-19.5801 15.6738,-35.2539 35.2539,-35.2539 3.7597,0 7.1289,0.293 10.1074,0.9277 l -14.5996,14.502 c -0.7813,0.7813 -1.1231,1.7578 -1.1231,2.7832 0,2.2461 1.6602,3.9063 3.8575,3.9063 z" />
  </g>
</svg>
