<?xml version="1.0" encoding="UTF-8" standalone="no"?>
<!--Generator: Apple Native CoreSVG 123-->

<svg
   xmlns:dc="http://purl.org/dc/elements/1.1/"
   xmlns:cc="http://creativecommons.org/ns#"
   xmlns:rdf="http://www.w3.org/1999/02/22-rdf-syntax-ns#"
   xmlns:svg="http://www.w3.org/2000/svg"
   xmlns="http://www.w3.org/2000/svg"
   xmlns:sodipodi="http://sodipodi.sourceforge.net/DTD/sodipodi-0.dtd"
   xmlns:inkscape="http://www.inkscape.org/namespaces/inkscape"
   version="1.1"
   width="3300"
   height="2200"
   id="svg188"
   sodipodi:docname="gear.svg"
   inkscape:version="0.92.2 5c3e80d, 2017-08-06">
  <metadata
     id="metadata194">
    <rdf:RDF>
      <cc:Work
         rdf:about="">
        <dc:format>image/svg+xml</dc:format>
        <dc:type
           rdf:resource="http://purl.org/dc/dcmitype/StillImage" />
        <dc:title></dc:title>
      </cc:Work>
    </rdf:RDF>
  </metadata>
  <defs
     id="defs192" />
  <sodipodi:namedview
     pagecolor="#ffffff"
     bordercolor="#666666"
     borderopacity="1"
     objecttolerance="10"
     gridtolerance="10"
     guidetolerance="10"
     inkscape:pageopacity="0"
     inkscape:pageshadow="2"
     inkscape:window-width="1400"
     inkscape:window-height="810"
     id="namedview190"
     showgrid="false"
     inkscape:pagecheckerboard="true"
     inkscape:zoom="1.7163636"
     inkscape:cx="199.13741"
     inkscape:cy="2095.5558"
     inkscape:window-x="121"
     inkscape:window-y="29"
     inkscape:window-maximized="0"
     inkscape:current-layer="svg188" />
  <!--glyph: "uni10035F.medium", point size: 100.000000, font version: "Version 15.0d4e20", template writer version: "2"-->
  <rect
     y="0"
     x="0"
     width="3300"
     style="opacity:0;fill:#ffffff"
     id="artboard"
     height="2200" />
  <path
     inkscape:connector-curvature="0"
     id="path142"
     d="m 59.004579,61.604019 c 3.550835,-1.47391 4.731825,1.1329 5.920085,3.85304 1.12242,4.39908 6.76821,2.6554 6.12013,-1.53518 -0.2072,-3.49517 1.49918,-5.20253 5.08043,-5.56148 2.66891,-2.48725 4.34912,0.67513 6.32704,2.20302 2.91459,3.65569 6.82813,-0.70471 4.87127,-4.10278 -1.84394,-3.56957 0.79141,-5.32283 3.64211,-7.25894 1.56053,-2.594898 4.1175,0.29421 6.22895,0.71291 4.238976,2.15536 5.721196,-3.557928 2.834986,-5.932668 -3.335746,-2.89894 0.0691,-5.61942 1.4714,-8.7031 1.05805,-1.77663 4.05437,-0.27977 5.97533,-0.59906 4.99504,0.14027 3.22462,-5.45411 -0.007,-6.74557 -4.34487,-1.73552 -0.83899,-6.05811 -1.15003,-9.49419 2.51867,-1.12327 6.01374,-0.95047 7.52489,-3.52938 0.89387,-3.67367 -3.57737,-3.91943 -5.97943,-4.86445 -2.90462,-0.6500098 -2.55406,-6.6780098 -2.14384,-8.5470098 1.80241,-1.92608999 5.55815,-3.097012 4.94438,-6.25256 -1.51949,-3.050294 -5.32817,-1.395616 -8.02794,-1.64049 -1.50779,-1.718831 -5.939756,-5.9990732 -3.162756,-8.6573692 1.957466,-2.209394 3.836296,-6.936579 -0.75544,-7.283324 -2.18014,0.64122 -4.23791,1.644865 -6.36456,2.444483 -2.27784,-2.678477 -7.33009,-3.981787 -5.11216,-8.109273 1.8,-3.150099 -1.11609,-8.34532 -4.53167,-4.715724 -1.87162,1.079289 -3.3426,4.5585 -5.69659,2.716803 -3.48115,-0.779887 -6.3795,-1.790157 -5.95333,-5.776421 0.64311,-3.931293 -4.75921,-6.236465 -6.04013,-1.821615 -1.30621,2.064864 -1.76534,5.606719 -5.078086,4.099922 -3.611361,0.949556 -5.780981,-0.210153 -6.783964,-3.659678 -0.851294,-4.193599 -6.787512,-3.4338 -6.23544,0.972348 -0.140325,2.918488 -0.487924,5.605835 -4.232922,5.514813 -2.876737,2.459828 -4.911651,0.458066 -6.990482,-1.651697 -2.90261,-3.906418 -7.087118,0.36756 -5.059034,3.950141 1.879896,3.578771 -0.866225,5.278342 -3.693758,7.210834 -1.59493,2.504559 -4.139101,-0.30676 -6.254102,-0.702693 -4.500566,-2.108307 -5.485628,3.784612 -2.640625,6.131717 3.521555,3.085556 -1.008449,6.0303002 -2.016012,9.3659232 -2.765806,0.221898 -6.0405007,-1.131706 -8.3267887,0.799533 -2.010674,3.151134 2.070208,4.81687701 3.9353717,6.592777 2.55263,1.64857 0.102282,7.19183 -0.885727,8.8071 -2.3650357,1.1259898 -6.4134217,0.8623198 -6.7346257,4.1618898 0.351248,3.3814 4.515846,3.12498 6.9542797,4.28076 0.725259,2.16477 3.584823,7.63708 0.04447,9.21544 -2.5103897,1.42099 -6.0971727,5.25293 -1.9007707,7.10928 2.2972937,0.18503 4.6098637,-0.15311 6.9137917,-0.19528 1.125308,3.35482 5.397532,6.35467 1.93073,9.48453 -2.808095,2.37957 -1.695539,8.157598 2.739461,6.046118 1.808961,-0.26559 4.044862,-2.802858 5.537586,-1.38579 2.578095,2.3738 6.519157,3.85651 4.417288,7.79319 -1.904912,3.3163 1.736296,7.99524 4.810034,4.24503 1.783015,-1.02014 3.130956,-4.57058 5.427543,-2.58388 3.467077,0.86366 6.445173,1.77734 5.969267,5.81536 -0.668816,3.97243 4.803565,6.28401 6.064455,1.81299 1.287294,-2.09792 1.749954,-5.65304 5.098803,-4.05477 z M 71.260484,10.920421 C 69.330444,4.3851612 62.195852,-0.20724879 55.488979,1.8384212 c -4.671233,-7.975267 -9.342467,-15.9505332 -14.0137,-23.9258002 16.318611,-8.271018 38.068615,-3.433914 48.937685,11.404382 4.74359,6.2004812 7.54818,13.8246382 8.09392,21.603418 -9.08213,0 -18.16427,0 -27.2464,0 z m -51.904305,3.125 c -0.110573,-12.7135798 6.053324,-25.409686 16.5039,-32.7636 4.703767,8.024067 9.407533,16.0481332 14.1113,24.0722002 -5.030854,4.57504 -5.060842,13.0618298 0,17.6269998 -4.8177,7.8776 -9.6354,15.75519 -14.4531,23.63279 -10.23694,-7.44472 -16.267377,-19.96022 -16.1621,-32.56839 z m 33.6425,0.1465 c 0.03987,-10.1232298 16.730375,-5.1389398 10.971525,3.32254 -3.05721,4.86735 -11.100423,2.38614 -10.971525,-3.32254 z m 6.0059,39.990248 c -5.51812,-0.25925 -14.816478,-1.02675 -17.387985,-4.94079 4.624128,-7.565318 9.248257,-15.130638 13.872385,-22.695958 6.772799,2.20231 13.945155,-2.6798 15.771505,-9.2773 9.08213,0 18.16427,0 27.2464,0 -0.95269,17.37731 -14.54113,33.169698 -31.77078,36.179048 -2.54559,0.49306 -5.138892,0.73531 -7.731525,0.735 z"
     style="opacity:0.95"
     inkscape:export-xdpi="25.760424"
     inkscape:export-ydpi="25.760424" />
</svg>
